<svg width="150" height="150" viewBox="0 0 150 150" fill="none" xmlns="http://www.w3.org/2000/svg">
<g clip-path="url(#clip0)">
<path d="M75 23.4386V79.6886M135.938 72.3644V96.0948H84.375L135.938 72.3644ZM14.0625 71.7784V96.0948H65.625L14.0625 71.7784ZM107.813 43.8726V58.5033L86.7188 58.6864V89.0636L107.813 43.8726ZM42.1875 44.0929V58.5033L63.2813 58.6864V89.0636L42.1875 44.0929Z" stroke="#EAB821"/>
<path d="M14.0625 72.6562C20.5346 72.6562 25.7812 67.4096 25.7812 60.9375C25.7812 54.4654 20.5346 49.2188 14.0625 49.2188C7.59041 49.2188 2.34375 54.4654 2.34375 60.9375C2.34375 67.4096 7.59041 72.6562 14.0625 72.6562Z" stroke="#EAB821" stroke-linecap="round" stroke-linejoin="round"/>
<path d="M75 25.7815C81.4721 25.7815 86.7188 20.5346 86.7188 14.0625C86.7188 7.59041 81.4721 2.34375 75 2.34375C68.5279 2.34375 63.2812 7.59041 63.2812 14.0625C63.2812 20.5346 68.5279 25.7815 75 25.7815Z" stroke="#EAB821" stroke-linecap="round" stroke-linejoin="round"/>
<path d="M42.1875 44.5312C48.6596 44.5312 53.9062 39.2846 53.9062 32.8125C53.9062 26.3404 48.6596 21.0938 42.1875 21.0938C35.7154 21.0938 30.4688 26.3404 30.4688 32.8125C30.4688 39.2846 35.7154 44.5312 42.1875 44.5312Z" stroke="#EAB821" stroke-linecap="round" stroke-linejoin="round"/>
<path d="M135.938 72.6562C129.465 72.6562 124.219 67.4096 124.219 60.9375C124.219 54.4654 129.465 49.2188 135.938 49.2188C142.41 49.2188 147.656 54.4654 147.656 60.9375C147.656 67.4096 142.41 72.6562 135.938 72.6562Z" stroke="#EAB821" stroke-linecap="round" stroke-linejoin="round"/>
<path d="M107.812 44.5312C101.34 44.5312 96.0938 39.2846 96.0938 32.8125C96.0938 26.3404 101.34 21.0938 107.812 21.0938C114.285 21.0938 119.531 26.3404 119.531 32.8125C119.531 39.2846 114.285 44.5312 107.812 44.5312Z" stroke="#EAB821" stroke-linecap="round" stroke-linejoin="round"/>
<path d="M68.8591 59.0331C64.4668 59.0331 61.1064 61.3619 59.0381 64.5944C56.842 67.6938 55.6778 71.703 54.5181 75.8359C52.3219 84.108 50.6417 93.0207 47.1535 96.6413L45.0852 98.7092L47.6694 100.385C52.5822 103.357 57.4903 105.557 62.5309 106.974C63.6952 107.363 63.823 108.01 63.9555 109.042C63.8281 112.922 62.2752 115.891 59.6911 118.735C56.979 121.575 53.3584 124.159 49.482 126.748C45.6057 129.328 41.4692 132.044 38.369 135.273C35.1365 138.505 32.8125 142.637 32.8125 147.55V150.001H35.2598C72.9911 150.001 82.6842 150.001 114.731 150.001H117.188V147.55C117.188 142.637 114.731 138.633 111.631 135.4C108.398 132.172 104.522 129.455 100.646 126.743C96.7695 124.16 93.021 121.57 90.3089 118.73C87.7248 115.886 86.1724 112.918 86.1724 109.166C86.1724 107.613 86.8211 107.096 87.3321 106.841C92.1124 105.548 96.8974 103.349 101.678 100.248L104.134 98.6995L102.066 96.6321C98.3173 92.756 96.5093 83.8383 93.925 75.571C92.6329 71.438 91.2084 67.4301 88.7566 64.3289C86.4326 61.2248 82.812 59.0286 78.1595 59.0286H68.8591V59.0331Z" fill="#EAB821"/>
</g>
<defs>
<clipPath id="clip0">
<rect width="150" height="150" fill="white"/>
</clipPath>
</defs>
</svg>
