<svg width="150" height="150" viewBox="0 0 150 150" fill="none" xmlns="http://www.w3.org/2000/svg">
<path d="M32.8125 107.376H121.875V149.999H32.8125V107.376Z" fill="#FCD062"/>
<path d="M50.6251 80.0211H104.062C113.931 80.0211 121.875 87.9657 121.875 97.8338V115.646C121.875 125.515 113.931 133.459 104.062 133.459H50.6251C40.757 133.459 32.8125 125.515 32.8125 115.646V97.8338C32.8125 87.9657 40.757 80.0211 50.6251 80.0211Z" fill="#FCD062"/>
<path d="M63.9843 80.0211H90.7032L77.3437 120.099L63.9843 80.0211Z" fill="white"/>
<path d="M77.3438 20.3728C72.2031 20.3728 67.273 22.4152 63.638 26.0502C60.003 29.6852 57.9609 34.615 57.9609 39.7557C57.9642 40.31 57.9912 40.8642 58.042 41.4162C58.8799 53.9585 68.9502 56.8939 68.9502 64.9367H71.1568C69.947 65.232 69.0368 66.2716 69.0368 67.5757V78.6513C69.0368 80.1855 70.2718 81.4202 71.8058 81.4202H82.8817C84.4157 81.4202 85.6506 80.1855 85.6506 78.6513V67.5757C85.6506 66.2716 84.7405 65.2334 83.5307 64.9367H85.7371C85.7371 56.9529 95.6632 54.0017 96.6292 41.6914C96.694 41.0481 96.7266 40.4022 96.7268 39.7557C96.7267 34.615 94.6846 29.6852 91.0496 26.0502C87.4146 22.4152 82.4845 20.3728 77.3439 20.3728H77.3438Z" fill="#FCD062"/>
<path d="M69.0368 64.9366V67.5757V78.6512C69.0368 80.1855 70.2718 81.4201 71.8058 81.4201H82.8817C84.4157 81.4201 85.6507 80.1855 85.6507 78.6512V67.5757V64.9366H69.0368Z" fill="#576D7E"/>
<path d="M67.6736 74.2791H87.0139M67.6736 64.9041H87.0139H67.6736Z" stroke="#2B4255" stroke-linecap="round" stroke-linejoin="round"/>
<path d="M47.0212 43.6312L37.6463 43.6306M77.3437 13.3083V3.93335V13.3083ZM92.2424 17.5226L96.9299 9.40363L92.2424 17.5226ZM61.6164 17.5226L56.9289 9.40363L61.6164 17.5226ZM50.8209 28.6217L42.7021 23.9342L50.8209 28.6217ZM103.038 28.6217L111.157 23.9342L103.038 28.6217ZM106.838 43.6312L116.212 43.6306L106.838 43.6312Z" stroke="#F8B84E" stroke-linecap="round" stroke-linejoin="round"/>
</svg>
