<svg width="150" height="150" viewBox="0 0 150 150" fill="none" xmlns="http://www.w3.org/2000/svg">
<path d="M119.309 28.129C122.478 28.129 124.902 29.8095 126.394 32.1401C127.978 34.3761 128.818 37.2684 129.655 40.2505C131.239 46.2182 132.451 52.6469 134.967 55.2583L136.459 56.7506L134.595 57.9586C131.051 60.1036 127.51 61.6901 123.874 62.7124C123.034 62.9937 122.942 63.4594 122.847 64.2047C122.938 67.0027 124.059 69.1442 125.923 71.1959C127.879 73.2458 130.491 75.1091 133.287 76.9775C136.084 78.837 139.068 80.7977 141.304 83.1264C143.636 85.458 145.312 88.4383 145.312 91.983V93.7511H143.547C116.329 93.7511 109.336 93.7511 86.2183 93.7511H84.4463V91.983C84.4463 88.4383 86.2183 85.5488 88.4547 83.2168C90.7866 80.8899 93.5829 78.9293 96.3791 76.9718C99.1755 75.108 101.879 73.2414 103.836 71.1925C105.7 69.1417 106.82 66.9991 106.82 64.2934C106.82 63.1731 106.352 62.8009 105.983 62.6157C102.535 61.6834 99.0831 60.097 95.6348 57.8601L93.8628 56.7432L95.3548 55.252C98.0589 52.4564 99.3632 46.0233 101.227 40.0594C102.159 37.0777 103.187 34.186 104.956 31.9496C106.632 29.7104 109.244 28.1261 112.6 28.1261H119.309L119.309 28.129Z" fill="#25B39E"/>
<path d="M101.532 32.817C105.153 32.817 107.924 34.7375 109.629 37.401C111.439 39.9575 112.399 43.2623 113.355 46.6701C115.166 53.4904 116.551 60.8374 119.427 63.8219L121.132 65.5271L119.001 66.9084C114.951 69.36 110.905 71.1722 106.749 72.3403C105.789 72.6544 105.684 73.1948 105.575 74.0461C105.68 77.2448 106.96 79.6921 109.09 82.0364C111.326 84.3796 114.311 86.5089 117.507 88.6436C120.703 90.7694 124.113 93.0103 126.669 95.6714C129.334 98.3358 131.25 101.743 131.25 105.793V107.814H129.232C98.1255 107.814 90.1342 107.814 63.7137 107.814H61.6885V105.793C61.6885 101.743 63.7137 98.4398 66.2697 95.775C68.9346 93.1144 72.1304 90.8742 75.3261 88.6373C78.522 86.5078 81.6122 84.3747 83.8483 82.0323C85.9787 79.6886 87.2583 77.2402 87.2583 74.1474C87.2583 72.8677 86.7231 72.4419 86.3024 72.2305C82.3613 71.165 78.4164 69.3528 74.4754 66.7963L72.4503 65.5191L74.1554 63.8151C77.2458 60.6201 78.7365 53.2675 80.867 46.451C81.9322 43.0431 83.1067 39.7393 85.128 37.1818C87.044 34.6234 90.029 32.8136 93.8645 32.8136H101.532L101.532 32.817Z" fill="#F05542"/>
<path d="M30.6905 28.129C27.5221 28.129 25.098 29.8095 23.6059 32.1401C22.0217 34.3761 21.1819 37.2684 20.3452 40.2505C18.761 46.2182 17.549 52.6469 15.0326 55.2583L13.5406 56.7506L15.4048 57.9586C18.9487 60.1036 22.4895 61.6901 26.1256 62.7124C26.9655 62.9937 27.0577 63.4594 27.1533 64.2047C27.0614 67.0027 25.941 69.1442 24.0769 71.1959C22.1205 73.2458 19.5087 75.1091 16.7124 76.9775C13.916 78.837 10.9321 80.7977 8.69568 83.1264C6.36387 85.458 4.68738 88.4383 4.68738 91.983V93.7511H6.45279C33.6713 93.7511 40.6636 93.7511 63.7815 93.7511H65.5535V91.983C65.5535 88.4383 63.7815 85.5488 61.5451 83.2168C59.2132 80.8899 56.4169 78.9293 53.6207 76.9718C50.8243 75.108 48.1204 73.2414 46.1638 71.1925C44.2997 69.1417 43.18 66.9991 43.18 64.2934C43.18 63.1731 43.6482 62.8009 44.0165 62.6157C47.4649 61.6834 50.9166 60.097 54.365 57.8601L56.137 56.7432L54.645 55.252C51.9409 52.4564 50.6366 46.0233 48.7724 40.0594C47.8404 37.0777 46.8127 34.186 45.044 31.9496C43.3676 29.7104 40.7557 28.1261 37.3996 28.1261H30.6904L30.6905 28.129Z" fill="#25B39E"/>
<path d="M48.468 32.817C44.8469 32.817 42.0765 34.7375 40.3712 37.401C38.5607 39.9575 37.6009 43.2623 36.6447 46.6701C34.8342 53.4904 33.449 60.8374 30.5731 63.8219L28.868 65.5271L30.9986 66.9084C35.0487 69.36 39.0953 71.1722 43.2509 72.3403C44.2107 72.6544 44.3162 73.1948 44.4253 74.0461C44.3203 77.2448 43.0399 79.6921 40.9096 82.0364C38.6736 84.3796 35.6887 86.5089 32.4929 88.6436C29.2971 90.7694 25.8869 93.0103 23.331 95.6714C20.666 98.3358 18.75 101.743 18.75 105.793V107.814H20.7676C51.8745 107.814 59.8658 107.814 86.2863 107.814H88.3115V105.793C88.3115 101.743 86.2863 98.4398 83.7303 95.775C81.0654 93.1144 77.8696 90.8742 74.6739 88.6373C71.478 86.5078 68.3878 84.3747 66.1517 82.0323C64.0213 79.6886 62.7417 77.2402 62.7417 74.1474C62.7417 72.8677 63.2769 72.4419 63.6976 72.2305C67.6387 71.165 71.5836 69.3528 75.5246 66.7963L77.5497 65.5191L75.8446 63.8151C72.7542 60.6201 71.2635 53.2675 69.133 46.451C68.0678 43.0431 66.8933 39.7393 64.872 37.1818C62.956 34.6234 59.971 32.8136 56.1355 32.8136H48.4679L48.468 32.817Z" fill="#F05542"/>
<path d="M69.3044 37.5045C65.2307 37.5045 62.1139 39.6657 60.1955 42.6624C58.1588 45.5377 57.079 49.2562 56.0033 53.0897C53.9665 60.7617 52.4081 69.0278 49.1728 72.385L47.2545 74.3042L49.6514 75.8577C54.2078 78.6149 58.7601 80.6555 63.4352 81.9694C64.515 82.3303 64.6336 82.9299 64.7564 83.888C64.6383 87.4866 63.1979 90.2386 60.8012 92.8768C58.2858 95.5121 54.9278 97.9079 51.3325 100.31C47.7372 102.701 43.9007 105.222 41.0254 108.216C38.0273 111.214 35.8718 115.046 35.8718 119.603V121.876H38.1416C73.1368 121.876 82.1269 121.876 111.85 121.876H114.128V119.603C114.128 115.046 111.85 111.332 108.974 108.333C105.976 105.34 102.381 102.819 98.7859 100.304C95.1907 97.9077 91.7141 95.5066 89.1986 92.8722C86.8019 90.2355 85.3623 87.4809 85.3623 84.0019C85.3623 82.5619 85.9644 82.0823 86.4377 81.8447C90.8714 80.6465 95.3094 78.6075 99.743 75.7312L102.021 74.295L100.103 72.3781C96.6263 68.7833 94.9493 60.5119 92.5525 52.8436C91.3541 49.0102 90.0329 45.2925 87.7589 42.4158C85.6034 39.5376 82.2453 37.5011 77.9303 37.5011H69.3043L69.3044 37.5045Z" fill="#2B4255"/>
</svg>
